# xmcd CD database file
#
# Track frame offsets:
#	150
#	18023
#	39925
#	61388
#	83288
#	103328
#	123355
#	142203
#	162508
#	183298
#	202818
#	223625
#	241398
#	256788
#	276828
#	294485
#	314270
#	336800
#
# Disc length: 4727 seconds
#
# Revision: 18
# Processed by: cddbd v1.5.2PL0 Copyright (c) Steve Scherf et al.
# Submitted via: CDex 1.70beta2
#
DISCID=fc127512
DTITLE=Whitney Houston - The Greatest Hits Cool Down (Disc1)
DYEAR=2000
DGENRE=Soul
TTITLE0=????????
TTITLE1=Greatest Love Of All
TTITLE2=One Moment In Time
TTITLE3=I Have Nothing
TTITLE4=I Will Always Love You
TTITLE5=Run To You
TTITLE6=???????
TTITLE7=All At Once
TTITLE8=Where Do Broken Hearts Go
TTITLE9=???????
TTITLE10=???????
TTITLE11=???????
TTITLE12=???????
TTITLE13=Count On Me
TTITLE14=I Believe In You And Me
TTITLE15=I Learned From The Best
TTITLE16=Same Script, Different Cast
TTITLE17=Could I Have This Kiss Forever
EXTD=YEAR: 2000
EXTT0=
EXTT1=
EXTT2=
EXTT3=
EXTT4=
EXTT5=
EXTT6=
EXTT7=
EXTT8=
EXTT9=
EXTT10=
EXTT11=
EXTT12=
EXTT13=
EXTT14=
EXTT15=
EXTT16=
EXTT17=
PLAYORDER=
